<svg width="15" height="15" viewBox="0 0 15 15" fill="none" xmlns="http://www.w3.org/2000/svg">
<path d="M0 7.5C0 8.98336 0.439867 10.4334 1.26398 11.6668C2.08809 12.9001 3.25943 13.8614 4.62987 14.4291C6.00032 14.9968 7.50832 15.1453 8.96318 14.8559C10.418 14.5665 11.7544 13.8522 12.8033 12.8033C13.8522 11.7544 14.5665 10.418 14.8559 8.96318C15.1453 7.50832 14.9968 6.00032 14.4291 4.62987C13.8614 3.25943 12.9001 2.08809 11.6668 1.26398C10.4334 0.439867 8.98336 0 7.5 0C5.51088 0 3.60322 0.790176 2.1967 2.1967C0.790176 3.60322 0 5.51088 0 7.5ZM3.21429 6.96428H9.72321L6.73393 3.96053L7.5 3.21429L11.7857 7.5L7.5 11.7857L6.73393 11.0212L9.72321 8.03571H3.21429V6.96428Z" fill="#FDC744"/>
</svg>
